/* XPM */
static char *xpm_[] = {
/* columns rows colors chars-per-pixel */
"32 30 15 1 ",
"  c none",
". c #3D1516",
"X c #71171A",
"o c #5B2723",
"O c #5D2033",
"+ c #6B372A",
"@ c #8C202F",
"# c #C12119",
"$ c #844A1C",
"% c #B2631B",
"& c #A47F2A",
"* c #E0473F",
"= c #C89B34",
"- c #DDC75D",
"; c #6AF1FF",
/* pixels */
";;;;;;;;;;;;;;;;;;;;;;;;;;;;;;;;",
";;;;;;;;;;;;;;;;;;;;;;;;;;;;;;;;",
";;;;;;;;;;;;;;;;;;;;;;;;;;;;;;;;",
";;;;XXX;;;;;XX;XX;XX;;;;;XXX;;;;",
";;;X---XXXXX=-X=-X=-XXXXX---X;;;",
";;X==%X****X%%X%%X%%X****X%==X;;",
";;X=%%XOO@@X&&X&&X&&X@@OOX%%=X;;",
";;X%%&X####@XXXXXXXX@####X&%%X;;",
";; $&&.####X--------X####X&&$.;;",
";;.$&&.@@@@.%%%%%%%%.@@@@.&&$.;;",
";;.$$$.OOOO..........OOOO.$$$.;;",
";;..........$$$$$$$$..........;;",
";;.ooooooooo........ooooooooo.;;",
";;.oooooooooooooooooooooooooo.;;",
";;.oooooooooooooooooooooooooo.;;",
";;.oooooooooooooooooooooooooo.;;",
";;.oooooooooo......oooooooooo.;;",
";;.........o.$$$$$$.o.........;;",
";.--=======.$------$.=======-- ;",
";.%%%%%%%%%.==....&=.%%%%%%%%%.;",
";.$&&&&&&&&.$.++++.$.&&&&&&&&$.;",
";.$$$$$$$$$.$.+$$+.$.$$$$$$$$$.;",
";;..........$$....$$..........;;",
";;.$$.OO@@@@.$$$$$$.@@@@OO.$$.;;",
";;.$$.O####@@......@@####O.$$.;;",
";;.$&.@######@@@@@@######@.&$.;;",
";;.$&.@@@@@@@@@@@@@@@@@@@@.&$.;;",
";;.$&&....................&&$.;;",
";;.$&&&&&&&&&&&&&&&&&&&&&&&&$.;;",
";;.$$$$$$$$$$$$$$$$$$$$$$$$$$.;;",
";;;                          ;;;",
";;;;;;;;;;;;;;;;;;;;;;;;;;;;;;;;",
";;;;;;;;;;;;;;;;;;;;;;;;;;;;;;;;"
};
