/* XPM */
static char *xpm_[] = {
/* columns rows colors chars-per-pixel */
"32 32 5 1 ",
"  c black",
". c #6C0000",
"X c #C41411",
"o c #E51C23",
"O c #6AF1FF",
/* pixels */
"OOOOOOOOOOOOOOOOOOOOOOOOOOOOOOOO",
"OOOOOOOOOOOOOOOOOOOOOOOOOOOOOOOO",
"OOOOOOOOOOOOOOOOOOOOOOOOOOOOOOOO",
"OOOOOOOOOOOOOOOOOOOOOOOOOOOOOOOO",
"OOOOOOOOOOOOOOOOOOOOOOOOOOOOOOOO",
"OOOOOOOOOOOOOOOOOOOOOOOOOOOOOOOO",
"OOOOOOOOOOOOOOOOOOOOOOOOOOOOOOOO",
"OOOOOOOOOOOOOOOOOOOOOOOOOOOOOOOO",
"OOOOOOOOOOOOOOOOOOOOOOOOOOOOOOOO",
"OOOOOOOOOOOOOOOOOOOOOOOOOOOOOOOO",
"OOOOOOOOOOOOOOOOOOOOOOOOOOOOOOOO",
"OOOOOOOOOOOOOOOOOOOOOOOOOOOOOOOO",
"OOO OOOOOOOO      OOOOOOOO OOOOO",
"OO X O OOOO oooooo OOOO O X OOOO",
"OO Xo o OO oooooooo OO o oX OOOO",
"OO Xoooo  oo.oooo.oo  ooooX OOOO",
"OOO XXXX  oo..oo..oo  XXXX OOOOO",
"OOOO    O oooooooooo O    OOOOOO",
"OOOOOOOO  XooooooooX   OOOOOOOOO",
"OOOOOOO o  XooooooX  oo OOOOOOOO",
"OOOOOO oo           O oo OOOOOOO",
"OOOOOOO X OOOOOOOOOOOO X OOOOOOO",
"OOOOOOO X OOOOOOOOOOOO X OOOOOOO",
"OOOOOOOO OOOOOOOOOOOOOO OOOOOOOO",
"OOOOOOOOOOOOOOOOOOOOOOOOOOOOOOOO",
"OOOOOOOOOOOOOOOOOOOOOOOOOOOOOOOO",
"OOOOOOOOOOOOOOOOOOOOOOOOOOOOOOOO",
"OOOOOOOOOOOOOOOOOOOOOOOOOOOOOOOO",
"OOOOOOOOOOOOOOOOOOOOOOOOOOOOOOOO",
"OOOOOOOOOOOOOOOOOOOOOOOOOOOOOOOO",
"OOOOOOOOOOOOOOOOOOOOOOOOOOOOOOOO",
"OOOOOOOOOOOOOOOOOOOOOOOOOOOOOOOO"
};
