/* XPM */
static char *cad3788a9751453aaf2b0edcaaa154d6fC1DK2hd4uLO4wHy[] = {
/* columns rows colors chars-per-pixel */
"32 32 6 1 ",
"  c #6AF1FF",
". c black",
"X c #003EFA",
"o c #D77BBA",
"O c #639BFF",
"+ c white",
/* pixels */
"                                ",
"                                ",
"                                ",
"                                ",
"             ......             ",
"           ..OOOOOO..           ",
"         ..OOOOOOOOOO..         ",
"        .OOOOOOOOOOOOOO.        ",
"       .OOOOOOOOOOOOOOOO.       ",
"      .OOOOOOOOOOOOOOOOOO.      ",
"      .OOO..OOOOOOOO..OOO.      ",
"     .OOO.OOOOOOOOOOOO.OOO.     ",
"     .OOOOO..OOOOOO..OOOOO.     ",
"     .OOOO..+.OOOO..+.OOOO.     ",
"     .OOOO....OOOO....OOOO.     ",
"     .OOOOO..OOOOOO..OOOOO.     ",
"     .XOOOOOOOOOOOOOOOOOOX.     ",
"      .OOooOOO.OO.OOOooOO.      ",
" .... .XOOOOOOO..OOOOOOOX. .... ",
".OOO.  .XOOOOOOOOOOOOOOX.  .OOO.",
".OOO....XXXOOOOOOOOOOXXX....OOO.",
" ...OOO.......OOOO.......OOO... ",
".OOOOOO.OOOOOO.OO.OOOOOO.OOOOOO.",
".XOOOO.OOOOOOO.OO.OOOOOOO.OOOOX.",
".XXXXX.XOOOOOO.XX.OOOOOOX.XXXXX.",
" ..... .XXXXXX....XXXXXX. ..... ",
"        ......    ......        ",
"                                ",
"                                ",
"                                ",
"                                ",
"                                "
};
