/* XPM */
static char *_3d711af9fe6468b802ec6d74f2ae9f7Jd3LuOpEQjV36TDg[] = {
/* columns rows colors chars-per-pixel */
"32 32 16 1 ",
"  c #211F30",
". c #4A3D3F",
"X c #6D2E41",
"o c #4F4748",
"O c #4F4E58",
"+ c #843346",
"@ c #9A4244",
"# c #A14744",
"$ c #AD6051",
"% c #B96E54",
"& c #BD8565",
"* c #C48A64",
"= c #CF9E6E",
"- c #D4A878",
"; c #CDA684",
": c #DAB487",
/* pixels */
" .............................o ",
" *===========================-: ",
" #*=========================-:% ",
" ##*=======================-:%% ",
" ###*=====================-:%%% ",
" ####*===================-:%%%% ",
" #####*=================-:%%%%% ",
" ######*===============-:%%%%%% ",
" #######*=============-:%%%%%%% ",
" ########*===========-:%%%%%%%% ",
" #########*=========-:%%%%%%%%% ",
" ##########*=======-:%%%%%%%%%% ",
" ###########*=====-:%%%%%%%%%%% ",
" ############*===-:%%%%%%%%%%%% ",
" #############*=-:%%%%%%%%%%%%% ",
" ##############&;%%%%%%%%%%%%%% ",
" #############@++$%%%%%%%%%%%%% ",
" ############@++++$%%%%%%%%%%%% ",
" ###########@++++++$%%%%%%%%%%% ",
" ##########@++++++++$%%%%%%%%%% ",
" #########@++++++++++$%%%%%%%%% ",
" ########@++++++++++++$%%%%%%%% ",
" #######@++++++++++++++$%%%%%%% ",
" ######@++++++++++++++++$%%%%%% ",
" #####@++++++++++++++++++$%%%%% ",
" ####@++++++++++++++++++++$%%%% ",
" ###@++++++++++++++++++++++$%%% ",
" ##@++++++++++++++++++++++++$%% ",
" #@++++++++++++++++++++++++++$% ",
" @++++++++++++++++++++++++++++$ ",
" XXXXXXXXXXXXXXXXXXXXXXXXXXXXXX ",
"OOOOOOOOOOOOOOOOOOOOOOOOOOOOOOOO"
};
